<svg width="164" height="32" viewBox="0 0 164 32" fill="none" xmlns="http://www.w3.org/2000/svg">
<path d="M143.828 16.1319C142.99 15.5822 142.067 15.1913 141.194 14.7027C140.627 14.3851 140.024 14.104 139.532 13.7009C138.694 13.0169 138.867 11.6731 139.741 11.0867C140.997 10.2561 143.076 10.7202 143.298 12.4183C143.298 12.4549 143.335 12.4794 143.372 12.4794H145.268C145.317 12.4794 145.354 12.4427 145.342 12.3939C145.243 11.2211 144.788 10.2438 143.951 9.62079C143.15 9.02221 142.24 8.70459 141.267 8.70459C136.258 8.70459 135.802 13.9697 138.497 15.6311C138.805 15.8266 141.452 17.1459 142.388 17.72C143.323 18.2941 143.618 19.3448 143.212 20.1754C142.842 20.9328 141.883 21.4581 140.923 21.3971C139.876 21.336 139.064 20.7741 138.781 19.8945C138.731 19.7357 138.707 19.4303 138.707 19.2959C138.707 19.2593 138.67 19.2226 138.633 19.2226H136.578C136.541 19.2226 136.504 19.2593 136.504 19.2959C136.504 20.7741 136.873 21.5925 137.882 22.3377C138.83 23.0462 139.864 23.3394 140.935 23.3394C143.742 23.3394 145.194 21.7635 145.489 20.1266C145.747 18.5263 145.268 17.0848 143.828 16.1319Z" fill="white"/>
<path d="M54.5774 8.97339H53.6666H52.6696C52.6327 8.97339 52.608 8.99782 52.5957 9.02225L50.9095 14.5439C50.8849 14.6172 50.7864 14.6172 50.7618 14.5439L49.0755 9.02225C49.0632 8.9856 49.0386 8.97339 49.0016 8.97339H48.0047H47.0938H45.863C45.826 8.97339 45.7891 9.01003 45.7891 9.04668V23.144C45.7891 23.1806 45.826 23.2173 45.863 23.2173H47.9185C47.9554 23.2173 47.9924 23.1806 47.9924 23.144V12.4305C47.9924 12.345 48.1155 12.3328 48.1401 12.4061L49.8386 17.9644L49.9617 18.3553C49.974 18.392 49.9986 18.4042 50.0356 18.4042H51.6111C51.648 18.4042 51.6726 18.3797 51.6849 18.3553L51.808 17.9644L53.5066 12.4061C53.5312 12.3206 53.6543 12.345 53.6543 12.4305V23.144C53.6543 23.1806 53.6913 23.2173 53.7281 23.2173H55.7837C55.8206 23.2173 55.8575 23.1806 55.8575 23.144V9.04668C55.8575 9.01003 55.8206 8.97339 55.7837 8.97339H54.5774Z" fill="white"/>
<path d="M112.354 8.97339C112.317 8.97339 112.292 8.99782 112.28 9.02225L110.595 14.5439C110.57 14.6172 110.471 14.6172 110.447 14.5439L108.76 9.02225C108.748 8.9856 108.723 8.97339 108.686 8.97339H105.56C105.523 8.97339 105.486 9.01003 105.486 9.04668V23.144C105.486 23.1806 105.523 23.2173 105.56 23.2173H107.616C107.653 23.2173 107.69 23.1806 107.69 23.144V12.4305C107.69 12.345 107.813 12.3328 107.837 12.4061L109.535 17.9644L109.658 18.3553C109.671 18.392 109.695 18.4042 109.732 18.4042H111.308C111.345 18.4042 111.37 18.3797 111.382 18.3553L111.505 17.9644L113.204 12.4061C113.228 12.3206 113.352 12.345 113.352 12.4305V23.144C113.352 23.1806 113.389 23.2173 113.426 23.2173H115.481C115.518 23.2173 115.554 23.1806 115.554 23.144V9.04668C115.554 9.01003 115.518 8.97339 115.481 8.97339H112.354Z" fill="white"/>
<path d="M85.8415 8.97339H82.0135H79.958H76.13C76.0931 8.97339 76.0562 9.01003 76.0562 9.04668V10.8058C76.0562 10.8424 76.0931 10.8791 76.13 10.8791H79.8842V23.144C79.8842 23.1806 79.921 23.2173 79.958 23.2173H82.0135C82.0504 23.2173 82.0874 23.1806 82.0874 23.144V10.8791H85.8415C85.8785 10.8791 85.9153 10.8424 85.9153 10.8058V9.04668C85.9153 9.01003 85.8908 8.97339 85.8415 8.97339Z" fill="white"/>
<path d="M97.9658 23.2171H99.8361C99.8854 23.2171 99.9223 23.1682 99.91 23.1194L96.0453 8.97318C96.033 8.93653 96.0084 8.92432 95.9714 8.92432H95.2577H94.0022H93.2883C93.2514 8.92432 93.2267 8.94875 93.2144 8.97318L89.3496 23.1194C89.3372 23.1682 89.3742 23.2171 89.4235 23.2171H91.2943C91.3313 23.2171 91.3559 23.1927 91.3682 23.1682L92.4883 19.0514C92.5005 19.0148 92.5252 19.0026 92.5621 19.0026H96.6981C96.7351 19.0026 96.7597 19.027 96.7721 19.0514L97.8919 23.1682C97.9043 23.1927 97.9412 23.2171 97.9658 23.2171ZM93.0544 16.9869L94.5561 11.4774C94.5807 11.4042 94.6792 11.4042 94.7038 11.4774L96.2055 16.9869C96.2178 17.0358 96.1808 17.0846 96.1316 17.0846H93.1283C93.079 17.0846 93.0422 17.0358 93.0544 16.9869Z" fill="white"/>
<path d="M129.87 23.2171H131.74C131.789 23.2171 131.826 23.1682 131.814 23.1194L127.949 8.97318C127.937 8.93653 127.912 8.92432 127.875 8.92432H127.162H125.906H125.192C125.155 8.92432 125.13 8.94875 125.118 8.97318L121.253 23.1194C121.241 23.1682 121.278 23.2171 121.327 23.2171H123.198C123.235 23.2171 123.26 23.1927 123.272 23.1682L124.392 19.0514C124.405 19.0148 124.429 19.0026 124.466 19.0026H128.602C128.639 19.0026 128.663 19.027 128.676 19.0514L129.796 23.1682C129.808 23.1927 129.833 23.2171 129.87 23.2171ZM124.958 16.9869L126.46 11.4774C126.484 11.4042 126.583 11.4042 126.607 11.4774L128.109 16.9869C128.121 17.0358 128.085 17.0846 128.035 17.0846H125.032C124.983 17.0846 124.946 17.0358 124.958 16.9869Z" fill="white"/>
<path d="M64.2027 21.1283V16.755C64.2027 16.7184 64.2397 16.6817 64.2766 16.6817H69.7539C69.7908 16.6817 69.8278 16.645 69.8278 16.6084V14.8493C69.8278 14.8127 69.7908 14.776 69.7539 14.776H64.2766C64.2397 14.776 64.2027 14.7394 64.2027 14.7027V10.9646C64.2027 10.928 64.2397 10.8913 64.2766 10.8913H70.5048C70.5417 10.8913 70.5787 10.8546 70.5787 10.818V9.0589C70.5787 9.02225 70.5417 8.9856 70.5048 8.9856H64.2027H62.0734C62.0365 8.9856 61.9995 9.02225 61.9995 9.0589V10.8913V14.7882V16.694V21.2139V23.144C61.9995 23.1806 62.0365 23.2173 62.0734 23.2173H64.2027H70.7632C70.8002 23.2173 70.8371 23.1806 70.8371 23.144V21.2872C70.8371 21.2505 70.8002 21.2139 70.7632 21.2139H64.2643C64.2274 21.2017 64.2027 21.1772 64.2027 21.1283Z" fill="white"/>
<path d="M162.609 23.0951L155.495 15.8021C155.47 15.7777 155.47 15.7289 155.495 15.7045L161.896 9.10776C161.945 9.0589 161.908 8.9856 161.847 8.9856H159.225C159.2 8.9856 159.188 8.99781 159.176 9.01003L153.748 14.605C153.699 14.6538 153.625 14.6172 153.625 14.5561V9.0589C153.625 9.02225 153.588 8.9856 153.551 8.9856H151.495C151.458 8.9856 151.421 9.02225 151.421 9.0589V23.1562C151.421 23.1929 151.458 23.2296 151.495 23.2296H153.551C153.588 23.2296 153.625 23.1929 153.625 23.1562V16.9505C153.625 16.8894 153.711 16.8527 153.748 16.9016L159.902 23.2051C159.914 23.2173 159.939 23.2296 159.951 23.2296H162.572C162.622 23.2173 162.659 23.1318 162.609 23.0951Z" fill="white"/>
<path d="M31.7453 1.38721L19.3013 10.5492L21.6153 5.14976L31.7453 1.38721Z" fill="#E17726" stroke="#E17726" stroke-width="0.25" stroke-linecap="round" stroke-linejoin="round"/>
<path d="M3.0415 1.38721L15.3747 10.6347L13.1715 5.14975L3.0415 1.38721Z" fill="#E27625" stroke="#E27625" stroke-width="0.25" stroke-linecap="round" stroke-linejoin="round"/>
<path d="M27.2646 22.6306L23.9536 27.6636L31.0434 29.606L33.0743 22.7406L27.2646 22.6306Z" fill="#E27625" stroke="#E27625" stroke-width="0.25" stroke-linecap="round" stroke-linejoin="round"/>
<path d="M1.72461 22.7406L3.74321 29.606L10.8207 27.6636L7.52195 22.6306L1.72461 22.7406Z" fill="#E27625" stroke="#E27625" stroke-width="0.25" stroke-linecap="round" stroke-linejoin="round"/>
<path d="M10.4391 14.1283L8.46973 17.0846L15.4856 17.4023L15.2518 9.8894L10.4391 14.1283Z" fill="#E27625" stroke="#E27625" stroke-width="0.25" stroke-linecap="round" stroke-linejoin="round"/>
<path d="M24.3472 14.1284L19.4608 9.80396L19.3008 17.4023L26.3166 17.0847L24.3472 14.1284Z" fill="#E27625" stroke="#E27625" stroke-width="0.25" stroke-linecap="round" stroke-linejoin="round"/>
<path d="M10.8208 27.6637L15.0672 25.6237L11.4116 22.7896L10.8208 27.6637Z" fill="#E27625" stroke="#E27625" stroke-width="0.25" stroke-linecap="round" stroke-linejoin="round"/>
<path d="M19.7197 25.6237L23.9538 27.6637L23.3753 22.7896L19.7197 25.6237Z" fill="#E27625" stroke="#E27625" stroke-width="0.25" stroke-linecap="round" stroke-linejoin="round"/>
<path d="M23.9538 27.6638L19.7197 25.6238L20.0643 28.3601L20.0274 29.5207L23.9538 27.6638Z" fill="#D5BFB2" stroke="#D5BFB2" stroke-width="0.25" stroke-linecap="round" stroke-linejoin="round"/>
<path d="M10.8208 27.6638L14.7596 29.5207L14.7349 28.3601L15.0672 25.6238L10.8208 27.6638Z" fill="#D5BFB2" stroke="#D5BFB2" stroke-width="0.25" stroke-linecap="round" stroke-linejoin="round"/>
<path d="M14.8333 20.9816L11.313 19.9555L13.7993 18.8193L14.8333 20.9816Z" fill="#233447" stroke="#233447" stroke-width="0.25" stroke-linecap="round" stroke-linejoin="round"/>
<path d="M19.9536 20.9816L20.9876 18.8193L23.4862 19.9555L19.9536 20.9816Z" fill="#233447" stroke="#233447" stroke-width="0.25" stroke-linecap="round" stroke-linejoin="round"/>
<path d="M10.8206 27.6636L11.4361 22.6306L7.52197 22.7406L10.8206 27.6636Z" fill="#CC6228" stroke="#CC6228" stroke-width="0.25" stroke-linecap="round" stroke-linejoin="round"/>
<path d="M23.3506 22.6306L23.9537 27.6636L27.2647 22.7406L23.3506 22.6306Z" fill="#CC6228" stroke="#CC6228" stroke-width="0.25" stroke-linecap="round" stroke-linejoin="round"/>
<path d="M26.3166 17.0847L19.3008 17.4023L19.9531 20.9817L20.9871 18.8194L23.4857 19.9555L26.3166 17.0847Z" fill="#CC6228" stroke="#CC6228" stroke-width="0.25" stroke-linecap="round" stroke-linejoin="round"/>
<path d="M11.313 19.9555L13.7993 18.8194L14.8333 20.9817L15.4856 17.4023L8.46973 17.0847L11.313 19.9555Z" fill="#CC6228" stroke="#CC6228" stroke-width="0.25" stroke-linecap="round" stroke-linejoin="round"/>
<path d="M8.46973 17.0847L11.4115 22.7896L11.313 19.9555L8.46973 17.0847Z" fill="#E27525" stroke="#E27525" stroke-width="0.25" stroke-linecap="round" stroke-linejoin="round"/>
<path d="M23.4862 19.9555L23.3755 22.7896L26.3173 17.0847L23.4862 19.9555Z" fill="#E27525" stroke="#E27525" stroke-width="0.25" stroke-linecap="round" stroke-linejoin="round"/>
<path d="M15.4859 17.4023L14.8335 20.9817L15.6582 25.2084L15.8428 19.6379L15.4859 17.4023Z" fill="#E27525" stroke="#E27525" stroke-width="0.25" stroke-linecap="round" stroke-linejoin="round"/>
<path d="M19.3012 17.4023L18.9565 19.6258L19.1289 25.2084L19.9536 20.9817L19.3012 17.4023Z" fill="#E27525" stroke="#E27525" stroke-width="0.25" stroke-linecap="round" stroke-linejoin="round"/>
<path d="M19.9536 20.9818L19.1289 25.2084L19.7197 25.6238L23.3754 22.7897L23.4862 19.9556L19.9536 20.9818Z" fill="#F5841F" stroke="#F5841F" stroke-width="0.25" stroke-linecap="round" stroke-linejoin="round"/>
<path d="M11.313 19.9556L11.4115 22.7897L15.0671 25.6238L15.6579 25.2084L14.8333 20.9818L11.313 19.9556Z" fill="#F5841F" stroke="#F5841F" stroke-width="0.25" stroke-linecap="round" stroke-linejoin="round"/>
<path d="M20.0276 29.5207L20.0645 28.3601L19.7445 28.0914H15.0427L14.7349 28.3601L14.7596 29.5207L10.8208 27.6638L12.1994 28.7877L14.9934 30.7056H19.7814L22.5878 28.7877L23.954 27.6638L20.0276 29.5207Z" fill="#C0AC9D" stroke="#C0AC9D" stroke-width="0.25" stroke-linecap="round" stroke-linejoin="round"/>
<path d="M19.7193 25.6238L19.1285 25.2085H15.6575L15.0667 25.6238L14.7344 28.3602L15.0421 28.0915H19.744L20.064 28.3602L19.7193 25.6238Z" fill="white" stroke="white" stroke-width="0.25" stroke-linecap="round" stroke-linejoin="round"/>
<path d="M32.2744 11.1478L33.3207 6.09039L31.7452 1.38721L19.7197 10.2439L24.3477 14.1285L30.8835 16.0221L32.3237 14.3485L31.696 13.8964L32.6929 12.9925L31.9298 12.4061L32.9268 11.6487L32.2744 11.1478Z" fill="#763E1A" stroke="#763E1A" stroke-width="0.25" stroke-linecap="round" stroke-linejoin="round"/>
<path d="M1.46582 6.09039L2.52436 11.1478L1.84739 11.6487L2.85669 12.4061L2.09356 12.9925L3.09055 13.8964L2.46281 14.3485L3.90292 16.0221L10.4388 14.1285L15.0668 10.2439L3.04132 1.38721L1.46582 6.09039Z" fill="#763E1A" stroke="#763E1A" stroke-width="0.25" stroke-linecap="round" stroke-linejoin="round"/>
<path d="M30.8837 16.0219L24.3479 14.1284L26.3173 17.0847L23.3755 22.7896L27.265 22.7407H33.0746L30.8837 16.0219Z" fill="#F5841F" stroke="#F5841F" stroke-width="0.25" stroke-linecap="round" stroke-linejoin="round"/>
<path d="M10.439 14.1284L3.90323 16.0219L1.72461 22.7407H7.52195L11.4114 22.7896L8.46971 17.0847L10.439 14.1284Z" fill="#F5841F" stroke="#F5841F" stroke-width="0.25" stroke-linecap="round" stroke-linejoin="round"/>
<path d="M19.3011 17.4024L19.7196 10.2437L21.615 5.14966H13.1714L15.0669 10.2437L15.4854 17.4024L15.6454 19.6501L15.6577 25.2084H19.1287L19.141 19.6501L19.3011 17.4024Z" fill="#F5841F" stroke="#F5841F" stroke-width="0.25" stroke-linecap="round" stroke-linejoin="round"/>
</svg>
