<svg width="162" height="33" viewBox="0 0 162 33" fill="none" xmlns="http://www.w3.org/2000/svg">
<g clip-path="url(#clip0_168_5715)">
<path d="M9.78343 13.6147L16.0859 7.32289L22.3917 13.6181L26.0589 9.95689L16.0859 0L6.11621 9.95356L9.78343 13.6147Z" fill="#F8F8F8"/>
<path d="M7.19457 16.199L3.52783 12.5383L-0.139089 16.1992L3.52765 19.8599L7.19457 16.199Z" fill="#F8F8F8"/>
<path d="M9.78393 18.7853L16.0864 25.0772L22.392 18.7822L26.0612 22.4414L26.0594 22.4434L16.0864 32.4L6.11645 22.4467L6.11133 22.4416L9.78393 18.7853Z" fill="#F8F8F8"/>
<path d="M28.6461 19.8621L32.313 16.2012L28.6462 12.5405L24.9793 16.2014L28.6461 19.8621Z" fill="#F8F8F8"/>
<path d="M19.8061 16.1981H19.8077L16.0864 12.4829L13.3363 15.2285H13.336L13.0202 15.544L12.3684 16.1948L12.3633 16.1999L12.3684 16.2053L16.0864 19.9171L19.8077 16.2019L19.8095 16.1999L19.8061 16.1981Z" fill="#F8F8F8"/>
<path d="M38.0303 7.85083H46.0063C47.9859 7.85083 49.4828 8.35803 50.4973 9.37242C51.2825 10.158 51.6749 11.1317 51.6749 12.2933V12.3424C51.6749 12.8332 51.6141 13.267 51.4919 13.6432C51.3699 14.0199 51.2068 14.3589 51.0031 14.6617C50.7998 14.9646 50.5635 15.2305 50.2948 15.4593C50.026 15.6886 49.7371 15.8851 49.4277 16.0484C50.4227 16.4251 51.2061 16.9361 51.7772 17.5825C52.348 18.2292 52.6338 19.1251 52.6338 20.2703V20.3191C52.6338 21.1048 52.4826 21.7919 52.1798 22.3812C51.8771 22.97 51.4434 23.4611 50.8787 23.8539C50.3141 24.2467 49.6351 24.541 48.8415 24.7375C48.0479 24.9338 47.1685 25.0318 46.2034 25.0318H38.0303V7.85083ZM45.2089 14.7968C46.045 14.7968 46.7089 14.654 47.2002 14.3674C47.6919 14.081 47.9377 13.6186 47.9377 12.9806V12.9315C47.9377 12.3591 47.7244 11.9215 47.2984 11.6185C46.8722 11.3157 46.2575 11.1642 45.4547 11.1642H41.7177V14.7968H45.2089ZM46.217 21.7187C47.0529 21.7187 47.708 21.5677 48.1838 21.2647C48.659 20.962 48.8969 20.4914 48.8969 19.8531V19.8043C48.8969 19.2316 48.6754 18.7776 48.233 18.4418C47.7903 18.1069 47.0775 17.939 46.094 17.939H41.7177V21.7189L46.217 21.7187Z" fill="#F8F8F8"/>
<path d="M57.3853 7.85083H61.1708V25.0323H57.3853V7.85083Z" fill="#F8F8F8"/>
<path d="M66.9058 7.85083H70.3964L78.4606 18.4298V7.85083H82.1975V25.0323H78.9771L70.6424 14.1099V25.0323H66.9058V7.85083Z" fill="#F8F8F8"/>
<path d="M93.6599 7.72827H97.1508L104.527 25.0324H100.568L98.9948 21.179H91.7175L90.1442 25.0324H86.2837L93.6599 7.72827ZM97.6427 17.8405L95.356 12.269L93.0701 17.8405H97.6427Z" fill="#F8F8F8"/>
<path d="M108.614 7.85083H112.106L120.169 18.4298V7.85083H123.906V25.0323H120.686L112.351 14.1099V25.0323H108.614V7.85083Z" fill="#F8F8F8"/>
<path d="M137.532 25.3265C136.27 25.3265 135.098 25.0972 134.016 24.6394C132.934 24.1816 132 23.5554 131.214 22.7616C130.427 21.968 129.812 21.0312 129.37 19.9513C128.927 18.8711 128.706 17.7175 128.706 16.4902V16.4413C128.706 15.214 128.927 14.0648 129.37 12.9928C129.812 11.9211 130.427 10.9801 131.214 10.1702C132 9.36026 132.943 8.72179 134.041 8.25553C135.138 7.78928 136.352 7.55615 137.68 7.55615C138.482 7.55615 139.216 7.62192 139.879 7.75243C140.543 7.88371 141.145 8.06335 141.687 8.29238C142.228 8.52167 142.727 8.79984 143.187 9.12688C143.645 9.45443 144.071 9.81423 144.465 10.207L142.056 12.9805C141.383 12.3753 140.699 11.9003 140.003 11.5569C139.306 11.2135 138.523 11.0415 137.655 11.0415C136.934 11.0415 136.266 11.1807 135.651 11.4589C135.037 11.7371 134.508 12.1214 134.065 12.6123C133.623 13.1031 133.279 13.672 133.033 14.3181C132.787 14.9648 132.664 15.656 132.664 16.3922V16.4411C132.664 17.1773 132.787 17.8731 133.033 18.5272C133.279 19.182 133.618 19.7545 134.053 20.2453C134.487 20.7361 135.012 21.1251 135.626 21.4115C136.241 21.6981 136.917 21.8409 137.655 21.8409C138.639 21.8409 139.47 21.661 140.15 21.3009C140.83 20.9414 141.507 20.4503 142.178 19.8282L144.588 22.2582C144.145 22.7329 143.686 23.1585 143.211 23.5344C142.736 23.9111 142.215 24.2341 141.65 24.5043C141.084 24.774 140.465 24.979 139.794 25.1177C139.121 25.2566 138.368 25.3265 137.532 25.3265Z" fill="#F8F8F8"/>
<path d="M149.043 7.85083H161.999V11.2136H152.78V14.699H160.893V18.0616H152.78V21.6698H162.123V25.0323H149.043V7.85083Z" fill="#F8F8F8"/>
</g>
<defs>
<clipPath id="clip0_168_5715">
<rect width="162" height="32.4" fill="white"/>
</clipPath>
</defs>
</svg>
