<svg width="162" height="30" viewBox="0 0 162 30" fill="none" xmlns="http://www.w3.org/2000/svg">
<g clip-path="url(#clip0_168_5707)">
<path d="M32.6959 8.14091C26.8108 8.14091 22.2124 12.6426 22.2124 18.669C22.2124 24.6954 26.6946 29.1585 32.6959 29.1585C38.6971 29.1585 43.2573 24.6183 43.2573 18.6305C43.2573 12.6811 38.7751 8.14091 32.6959 8.14091ZM32.7356 24.8154C29.3842 24.8154 26.9284 22.1927 26.9284 18.6705C26.9284 15.1083 29.3445 12.487 32.6959 12.487C36.0869 12.487 38.5412 15.1483 38.5412 18.6705C38.5412 22.1927 36.0869 24.8154 32.7356 24.8154ZM44.5425 12.7211H47.4659V28.7688H52.1422V8.5321H44.5425V12.7211ZM10.4437 12.4855C12.8995 12.4855 14.848 14.0117 15.5877 16.2818H20.5375C19.6405 11.429 15.6656 8.14091 10.4834 8.14091C4.59836 8.14091 0 12.6426 0 18.6705C0 24.6984 4.48219 29.16 10.4834 29.16C15.5494 29.16 19.6022 25.8719 20.4993 20.9791H15.5877C14.8862 23.2492 12.9378 24.8154 10.482 24.8154C7.09092 24.8154 4.71453 22.1927 4.71453 18.6705C4.71601 15.1083 7.05415 12.4855 10.4437 12.4855ZM133.395 16.713L129.966 16.2048C128.329 15.9707 127.16 15.4224 127.16 14.1303C127.16 12.7211 128.681 12.0173 130.745 12.0173C133.005 12.0173 134.448 12.9952 134.76 14.6H139.28C138.773 10.5295 135.655 8.1424 130.863 8.1424C125.913 8.1424 122.64 10.6866 122.64 14.2873C122.64 17.731 124.784 19.7285 129.109 20.3538L132.538 20.862C134.214 21.0961 135.15 21.7629 135.15 23.015C135.15 24.6198 133.513 25.2851 131.253 25.2851C128.485 25.2851 126.926 24.1501 126.692 22.4283H122.094C122.523 26.3817 125.601 29.16 131.213 29.16C136.319 29.16 139.708 26.8114 139.708 22.7794C139.708 19.1787 137.254 17.2998 133.395 16.713ZM49.8041 0.195595C48.0894 0.195595 46.8027 1.4477 46.8027 3.16953C46.8027 4.89136 48.088 6.14347 49.8041 6.14347C51.5187 6.14347 52.8054 4.89136 52.8054 3.16953C52.8054 1.4477 51.5187 0.195595 49.8041 0.195595ZM118.431 15.4609C118.431 11.0778 115.781 8.1424 110.17 8.1424C104.87 8.1424 101.908 10.8437 101.323 14.9927H105.961C106.195 13.3879 107.442 12.0573 110.092 12.0573C112.469 12.0573 113.639 13.1138 113.639 14.4059C113.639 16.0892 111.494 16.5189 108.845 16.793C105.259 17.1842 100.817 18.4363 100.817 23.1336C100.817 26.7743 103.507 29.1215 107.793 29.1215C111.144 29.1215 113.249 27.7123 114.302 25.4807C114.458 27.4767 115.938 28.7688 118.005 28.7688H120.732V24.5813H118.432V15.4609H118.431ZM113.833 20.5494C113.833 23.2507 111.494 25.2466 108.649 25.2466C106.895 25.2466 105.414 24.5028 105.414 22.938C105.414 20.942 107.792 20.3938 109.974 20.1597C112.078 19.9641 113.247 19.4943 113.833 18.5934V20.5494ZM89.0085 8.14091C86.3969 8.14091 84.2146 9.23743 82.6558 11.0763V0H77.9795V28.7688H82.5779V26.1075C84.1367 28.025 86.3586 29.16 89.0085 29.16C94.6201 29.16 98.8685 24.6984 98.8685 18.6705C98.8685 12.6426 94.5422 8.14091 89.0085 8.14091ZM88.3071 24.8154C84.9557 24.8154 82.4999 22.1927 82.4999 18.6705C82.4999 15.1483 84.994 12.487 88.3453 12.487C91.7364 12.487 94.1128 15.1097 94.1128 18.6705C94.1128 22.1927 91.6584 24.8154 88.3071 24.8154ZM66.7946 8.14091C63.755 8.14091 61.7669 9.39302 60.5978 11.1549V8.5321H55.9597V28.7673H60.636V17.7695C60.636 14.6771 62.5845 12.4855 65.4682 12.4855C68.1578 12.4855 69.8328 14.4029 69.8328 17.1828V28.7688H74.5091V16.8316C74.5105 11.7416 71.9003 8.14091 66.7946 8.14091ZM162 18.0051C162 12.2129 157.791 8.1424 152.14 8.1424C146.139 8.1424 141.735 12.6826 141.735 18.6705C141.735 24.9725 146.451 29.16 152.218 29.16C157.09 29.16 160.909 26.2631 161.882 22.1541H157.01C156.309 23.9545 154.594 24.9725 152.294 24.9725C149.293 24.9725 147.033 23.0936 146.527 19.8055H161.999V18.0051H162ZM146.801 16.4389C147.542 13.6205 149.646 12.2514 152.062 12.2514C154.712 12.2514 156.738 13.7776 157.206 16.4389H146.801Z" fill="#F8F8F8"/>
</g>
<defs>
<clipPath id="clip0_168_5707">
<rect width="162" height="29.16" fill="white"/>
</clipPath>
</defs>
</svg>
