<svg width="36" height="36" viewBox="0 0 36 36" fill="none" xmlns="http://www.w3.org/2000/svg">
<rect x="0.5" y="0.5" width="35" height="35" rx="17.5" fill="#171717"/>
<rect x="0.5" y="0.5" width="35" height="35" rx="17.5" stroke="#9F444F"/>
<path d="M13.1991 21.7967C12.9388 22.057 12.9264 22.5219 13.2053 22.7947C13.4781 23.0674 13.943 23.0612 14.2033 22.8009L17.9969 19.0011L21.7967 22.8009C22.0632 23.0674 22.5219 23.0674 22.7947 22.7947C23.0612 22.5157 23.0674 22.0632 22.7947 21.7967L19.0011 17.9969L22.7947 14.2033C23.0674 13.9368 23.0674 13.4781 22.7947 13.2053C22.5157 12.9388 22.0632 12.9326 21.7967 13.1991L17.9969 16.9989L14.2033 13.1991C13.943 12.9388 13.4719 12.9264 13.2053 13.2053C12.9326 13.4781 12.9388 13.943 13.1991 14.2033L16.9989 17.9969L13.1991 21.7967Z" fill="white"/>
<path d="M13.1991 21.7967C12.9388 22.057 12.9264 22.5219 13.2053 22.7947C13.4781 23.0674 13.943 23.0612 14.2033 22.8009L17.9969 19.0011L21.7967 22.8009C22.0632 23.0674 22.5219 23.0674 22.7947 22.7947C23.0612 22.5157 23.0674 22.0632 22.7947 21.7967L19.0011 17.9969L22.7947 14.2033C23.0674 13.9368 23.0674 13.4781 22.7947 13.2053C22.5157 12.9388 22.0632 12.9326 21.7967 13.1991L17.9969 16.9989L14.2033 13.1991C13.943 12.9388 13.4719 12.9264 13.2053 13.2053C12.9326 13.4781 12.9388 13.943 13.1991 14.2033L16.9989 17.9969L13.1991 21.7967Z" stroke="white"/>
</svg>
