<svg width="20" height="22" viewBox="0 0 20 22" fill="none" xmlns="http://www.w3.org/2000/svg">
<path d="M7.33074 3.69231L7.9792 1.98462C8.08856 1.69548 8.28097 1.44679 8.53122 1.2711C8.78148 1.09541 9.07791 1.00092 9.3817 1H10.6183C10.9221 1.00092 11.2185 1.09541 11.4688 1.2711C11.719 1.44679 11.9114 1.69548 12.0208 1.98462L12.6693 3.69231L14.871 4.98462L16.6505 4.70769C16.9468 4.66666 17.2484 4.71642 17.5169 4.85065C17.7855 4.98488 18.0088 5.19752 18.1586 5.46154L18.7618 6.53846C18.9164 6.80669 18.9876 7.11643 18.9661 7.4268C18.9445 7.73717 18.8313 8.03359 18.6412 8.27692L17.5403 9.70769V12.2923L18.6713 13.7231C18.8614 13.9664 18.9747 14.2628 18.9962 14.5732C19.0178 14.8836 18.9466 15.1933 18.792 15.4615L18.1888 16.5385C18.039 16.8025 17.8156 17.0151 17.5471 17.1493C17.2786 17.2836 16.977 17.3333 16.6807 17.2923L14.9012 17.0154L12.6994 18.3077L12.051 20.0154C11.9416 20.3045 11.7492 20.5532 11.4989 20.7289C11.2487 20.9046 10.9522 20.9991 10.6485 21H9.3817C9.07791 20.9991 8.78148 20.9046 8.53122 20.7289C8.28097 20.5532 8.08856 20.3045 7.9792 20.0154L7.33074 18.3077L5.12897 17.0154L3.34946 17.2923C3.05315 17.3333 2.75158 17.2836 2.48305 17.1493C2.21453 17.0151 1.99119 16.8025 1.8414 16.5385L1.23818 15.4615C1.08361 15.1933 1.01239 14.8836 1.03393 14.5732C1.05547 14.2628 1.16875 13.9664 1.35882 13.7231L2.45971 12.2923V9.70769L1.32866 8.27692C1.13859 8.03359 1.0253 7.73717 1.00377 7.4268C0.982227 7.11643 1.05344 6.80669 1.20802 6.53846L1.81124 5.46154C1.96103 5.19752 2.18437 4.98488 2.45289 4.85065C2.72142 4.71642 3.02299 4.66666 3.3193 4.70769L5.09881 4.98462L7.33074 3.69231Z" stroke="white" stroke-width="1.5" stroke-linecap="round" stroke-linejoin="round"/>
<path d="M9.99976 15.6153C12.4984 15.6153 14.5239 13.5489 14.5239 10.9999C14.5239 8.4509 12.4984 6.38452 9.99976 6.38452C7.50113 6.38452 5.47559 8.4509 5.47559 10.9999C5.47559 13.5489 7.50113 15.6153 9.99976 15.6153Z" stroke="white" stroke-width="1.5" stroke-linecap="round" stroke-linejoin="round"/>
<path d="M10 6.38452V10.9999H14.5242" stroke="white" stroke-width="1.5" stroke-linecap="round" stroke-linejoin="round"/>
<path d="M9.99982 11L6.80273 14.2615" stroke="white" stroke-width="1.5" stroke-linecap="round" stroke-linejoin="round"/>
</svg>
